<?xml version="1.0" standalone="no"?>
<!DOCTYPE svg PUBLIC "-//W3C//DTD SVG 20010904//EN"
 "http://www.w3.org/TR/2001/REC-SVG-20010904/DTD/svg10.dtd">
<svg version="1.0" xmlns="http://www.w3.org/2000/svg"
 width="300.000000pt" height="225.000000pt" viewBox="0 0 300.000000 225.000000"
 preserveAspectRatio="xMidYMid meet">
<metadata>
Created by potrace 1.10, written by Peter Selinger 2001-2011
</metadata>
<g transform="translate(0.000000,225.000000) scale(0.100000,-0.100000)"
fill="#6495ed" stroke="none">
<path d="M172 2238 c-18 -18 -14 -45 8 -51 21 -5 29 -52 10 -59 -10 -3 1 -61
20 -103 5 -11 12 -51 15 -90 4 -38 13 -82 21 -97 18 -34 18 -58 1 -58 -18 0
-53 39 -62 68 -3 12 -11 22 -17 22 -6 0 -8 13 -6 30 3 18 -1 35 -9 41 -7 6
-13 18 -13 25 0 9 -12 14 -35 14 -22 0 -41 7 -54 21 -12 13 -26 19 -35 16 -20
-8 -21 -27 -3 -27 15 0 47 -31 47 -45 0 -4 -12 -5 -27 -2 -26 5 -28 3 -30 -26
-1 -18 1 -27 5 -21 11 17 54 38 85 42 24 3 27 0 27 -26 0 -33 -14 -42 -65 -42
-18 0 -37 -6 -43 -13 -8 -10 -5 -12 14 -12 13 1 26 4 29 7 3 3 22 2 41 -2 35
-8 63 -33 64 -57 0 -7 4 -13 10 -13 5 0 28 -12 50 -27 l40 -28 -6 -62 c-4 -44
-3 -63 5 -63 7 0 11 14 9 37 -1 22 3 38 10 41 17 5 15 29 -5 63 l-18 30 58 54
c32 30 62 55 67 55 18 0 22 -22 7 -38 -22 -24 -31 -67 -19 -89 12 -21 16 -13
27 49 7 44 23 58 40 35 7 -10 15 -17 18 -17 10 0 -6 34 -21 46 -12 9 -12 13 2
26 8 9 21 18 27 20 9 3 9 9 0 25 -6 12 -11 34 -11 49 0 27 -1 27 -15 8 -8 -10
-15 -31 -15 -46 0 -28 -23 -48 -54 -48 -23 0 -19 29 10 80 15 25 28 62 29 82
2 34 1 36 -17 27 -15 -8 -18 -17 -13 -39 4 -20 2 -31 -9 -37 -10 -5 -19 -32
-24 -71 -9 -68 -33 -105 -53 -85 -7 7 -18 43 -25 80 -8 37 -20 94 -27 125 -8
32 -11 55 -7 53 11 -7 1 86 -12 113 -13 25 -28 28 -46 10z"/>
<path d="M446 2234 c-9 -23 -7 -36 3 -30 12 8 21 46 11 46 -4 0 -11 -7 -14
-16z"/>
<path d="M500 2208 l-23 -43 34 31 c19 17 43 36 54 42 18 10 17 11 -11 12 -26
0 -34 -7 -54 -42z"/>
<path d="M574 2201 c-62 -51 -95 -102 -108 -171 -7 -32 -5 -30 24 20 42 76
142 168 174 161 5 -1 4 4 -2 12 -7 8 -9 17 -5 20 3 4 0 7 -8 7 -8 0 -42 -22
-75 -49z"/>
<path d="M690 2235 c-15 -18 -15 -18 35 0 40 14 40 14 9 15 -17 0 -37 -7 -44
-15z"/>
<path d="M1080 2240 c-78 -8 -96 -15 -103 -41 -3 -10 -11 -21 -19 -23 -7 -2
-29 -8 -48 -14 -76 -23 -100 -25 -100 -8 0 9 -4 16 -10 16 -5 0 -10 4 -10 9 0
5 28 18 63 30 34 11 46 18 27 15 -69 -12 -232 -73 -244 -92 -11 -18 45 -24 63
-7 10 8 20 12 24 9 3 -4 14 1 23 10 22 23 38 15 42 -19 3 -25 1 -27 -22 -21
-15 4 -26 2 -26 -4 0 -5 -9 -10 -20 -10 -11 0 -20 -7 -20 -15 0 -22 -27 -18
-44 7 -15 21 -16 21 -17 3 -1 -11 -1 -23 -1 -26 1 -4 -7 -14 -18 -24 -17 -16
-22 -16 -49 -2 -29 15 -32 14 -46 -6 -8 -12 -15 -31 -14 -42 0 -19 1 -19 16 3
15 21 43 31 43 15 0 -5 4 -14 9 -21 8 -13 24 -4 116 66 6 4 26 13 45 19 19 7
62 21 95 33 33 11 90 26 127 32 l67 11 -19 24 c-23 29 -16 55 14 51 18 -3 21
-9 20 -45 -1 -45 4 -51 24 -31 8 8 15 8 25 0 10 -9 18 -8 32 2 17 12 18 17 7
41 -15 33 -8 45 24 45 21 0 24 -4 22 -31 -1 -17 -6 -33 -10 -35 -18 -11 -7
-26 15 -19 12 4 77 6 145 5 67 0 126 2 132 5 6 3 5 15 -2 30 -8 19 -8 28 2 40
11 13 10 14 -4 9 -9 -3 -17 -11 -18 -18 0 -6 -2 -15 -3 -21 -2 -5 -3 -15 -4
-22 -1 -12 -62 -7 -71 7 -3 4 -22 12 -42 18 -30 8 -36 8 -31 -4 3 -8 0 -14 -6
-14 -6 0 -11 5 -11 10 0 6 -16 10 -35 10 -19 0 -35 4 -35 9 0 14 -30 41 -43
39 -7 0 -41 -4 -77 -8z m28 -44 c5 -42 -13 -54 -33 -22 -20 30 -13 59 12 54
11 -2 19 -14 21 -32z"/>
<path d="M1507 2243 c-2 -4 -5 -24 -5 -43 0 -19 -6 -36 -11 -38 -21 -7 -11
-22 15 -22 23 0 25 3 19 30 -4 18 -2 36 4 44 8 10 8 16 -3 25 -8 7 -16 8 -19
4z"/>
<path d="M2069 2228 c100 -67 167 -155 173 -226 3 -38 10 -34 13 7 5 55 -95
211 -134 211 -10 0 -26 7 -37 15 -10 8 -26 15 -34 15 -8 0 1 -10 19 -22z"/>
<path d="M81 2231 c-8 -5 -9 -11 -3 -15 13 -8 42 3 42 15 0 11 -21 11 -39 0z"/>
<path d="M1569 2228 c-1 -7 0 -21 1 -31 1 -10 -6 -27 -16 -38 -20 -23 -18 -24
86 -39 41 -6 97 -17 124 -25 27 -8 51 -13 54 -11 6 7 -116 42 -171 50 -52 8
-73 34 -55 69 9 18 3 37 -13 37 -5 0 -10 -6 -10 -12z"/>
<path d="M327 2183 c-4 -3 -7 -12 -7 -20 0 -12 12 -12 70 -4 4 1 -49 31 -54
31 -2 0 -6 -3 -9 -7z"/>
<path d="M1845 2161 c-9 -15 -14 -91 -6 -91 4 0 14 23 23 50 13 41 14 50 3 50
-8 0 -16 -4 -20 -9z"/>
<path d="M440 2140 c-11 -11 -25 -18 -30 -15 -17 11 -11 -11 8 -28 17 -16 19
-15 36 19 20 44 15 53 -14 24z"/>
<path d="M1950 2120 c0 -19 3 -21 12 -12 9 9 9 15 0 24 -9 9 -12 7 -12 -12z"/>
<path d="M2350 2095 c0 -8 7 -15 15 -15 8 0 15 4 15 9 0 5 -7 11 -15 15 -9 3
-15 0 -15 -9z"/>
<path d="M1185 2090 c-3 -5 -16 -9 -28 -8 -12 0 -35 -6 -50 -15 l-29 -15 40
-7 c69 -11 70 -12 76 -280 7 -302 6 -294 28 -301 10 -3 18 -15 18 -27 1 -21 1
-21 14 3 13 22 12 27 -9 52 -20 24 -23 39 -25 130 -1 57 -3 135 -5 173 -2 39
-4 102 -4 142 -1 50 -6 76 -16 87 -21 21 -19 29 12 44 37 17 241 15 378 -3
125 -17 166 -18 120 -4 -106 32 -504 54 -520 29z"/>
<path d="M895 2064 c-149 -35 -292 -111 -288 -153 2 -16 -3 -21 -22 -21 -30 0
-33 -15 -5 -30 16 -8 24 -8 35 4 8 8 20 16 27 18 10 4 10 8 -1 21 -26 32 17
60 160 108 120 39 180 46 203 24 9 -10 15 -24 12 -31 -3 -7 -8 -102 -12 -211
-6 -188 -16 -242 -35 -211 -7 10 -9 9 -9 -4 0 -10 7 -18 16 -18 8 0 20 -13 25
-30 21 -59 29 -27 29 118 1 231 10 364 27 384 8 9 13 22 11 29 -6 18 -103 19
-173 3z"/>
<path d="M1933 2063 c-7 -3 -13 -8 -13 -13 0 -10 61 -32 69 -25 3 3 -5 8 -16
11 -12 4 -23 12 -25 18 -2 7 -9 11 -15 9z"/>
<path d="M1220 2035 c0 -10 7 -15 18 -13 21 4 19 22 -2 26 -10 2 -16 -3 -16
-13z"/>
<path d="M2515 2029 c-4 -5 2 -12 12 -16 10 -3 21 -8 25 -10 4 -2 5 3 2 11 -7
18 -31 28 -39 15z"/>
<path d="M313 2000 c6 -16 15 -30 19 -30 11 0 10 4 -4 35 -16 35 -29 31 -15
-5z"/>
<path d="M1790 2017 c0 -7 -9 -21 -21 -30 -28 -24 -16 -34 16 -13 20 13 25 14
25 2 0 -7 -6 -16 -13 -19 -8 -3 -18 -38 -25 -89 -15 -101 -21 -378 -9 -378 5
0 7 7 3 15 -3 9 0 15 9 15 13 0 15 27 15 168 0 132 4 179 18 224 22 70 25 73
51 56 16 -10 25 -10 39 -1 15 9 21 7 32 -11 16 -24 17 -40 20 -238 1 -82 6
-150 11 -154 5 -3 9 4 9 16 0 21 1 21 31 -4 33 -28 44 -32 54 -15 4 6 -2 13
-13 16 -11 3 -23 11 -26 19 -3 8 -15 14 -26 14 -23 0 -23 0 -11 33 6 14 5 57
0 106 -7 58 -6 87 1 97 8 9 7 21 -6 45 -13 26 -14 37 -5 51 15 24 6 38 -23 38
-12 0 -28 6 -35 13 -6 6 -29 12 -49 12 -24 0 -36 4 -34 13 1 6 -7 12 -18 12
-11 0 -20 -6 -20 -13z"/>
<path d="M2097 2012 c-10 -11 -13 -23 -8 -31 7 -11 13 -6 25 18 18 34 9 41
-17 13z"/>
<path d="M497 1890 c-17 -28 -16 -50 2 -50 5 0 11 10 14 23 2 12 8 30 12 40
12 29 -9 19 -28 -13z"/>
<path d="M2160 1867 c0 -21 12 -28 27 -16 19 16 16 29 -7 29 -11 0 -20 -6 -20
-13z"/>
<path d="M640 1867 c0 -4 9 -25 20 -47 25 -49 27 -202 5 -265 -18 -48 -32
-419 -17 -429 5 -3 10 29 11 79 1 46 6 97 11 114 5 17 5 33 1 36 -5 2 -5 22
-1 44 4 22 5 63 2 91 -7 71 18 68 48 -6 20 -47 21 -60 11 -77 -15 -23 -19
-216 -5 -238 13 -21 21 30 23 143 0 53 6 100 11 103 6 4 36 -6 68 -21 31 -15
82 -30 112 -33 30 -3 55 -10 55 -16 2 -22 17 -55 26 -55 6 0 9 40 7 100 -2 55
-6 100 -10 100 -5 0 -8 -10 -8 -22 0 -55 -10 -66 -60 -73 -32 -4 -58 -2 -84 9
-36 15 -48 40 -23 49 7 3 6 6 -5 6 -9 1 -20 -3 -23 -9 -3 -5 -15 -10 -27 -10
-15 0 -19 5 -15 20 3 11 -1 23 -9 28 -8 4 -15 27 -16 55 -2 26 -5 47 -7 47 -2
0 -10 -8 -17 -17 -11 -14 -15 -15 -22 -5 -9 13 -9 72 0 88 3 5 2 44 -2 87 -6
66 -11 82 -33 105 -15 15 -27 23 -27 19z"/>
<path d="M517 1830 c-4 -15 -14 -20 -36 -20 -22 0 -31 -5 -31 -16 0 -12 6 -15
23 -11 26 7 51 -6 45 -23 -2 -7 -26 -21 -53 -31 -58 -22 -110 -17 -126 12 -5
11 -14 19 -19 19 -17 0 2 -32 47 -77 48 -50 50 -53 26 -53 -9 0 -25 -8 -36
-17 -19 -17 -19 -17 -13 4 4 12 2 24 -4 28 -5 3 -11 0 -11 -7 -4 -39 -25 -132
-36 -158 -3 -8 -5 -25 -4 -38 2 -13 -3 -30 -10 -38 -10 -13 -20 -88 -23 -191
-2 -52 18 -43 27 12 5 28 15 75 23 105 8 30 16 69 18 85 6 50 28 149 37 168
17 31 59 21 101 -25 34 -37 39 -48 34 -77 -7 -46 4 -121 19 -121 8 0 12 35 13
120 l2 120 -28 0 c-29 0 -72 35 -72 58 0 12 32 23 75 26 30 1 31 4 33 94 2 68
-9 96 -21 52z m-83 -145 c-4 -8 -15 -15 -25 -15 -10 0 -19 7 -19 15 0 9 9 15
25 15 18 0 23 -4 19 -15z"/>
<path d="M4 1799 c10 -30 10 -57 1 -87 -8 -25 -9 -25 44 5 2 2 -2 10 -9 18 -9
11 -10 19 -3 26 11 11 43 2 43 -12 0 -4 13 -22 30 -39 22 -23 29 -39 28 -65
-1 -41 9 -56 23 -35 8 13 12 11 26 -7 8 -13 19 -23 23 -23 12 0 -37 94 -64
123 -14 16 -26 32 -26 36 0 15 -42 46 -59 43 -9 -1 -27 7 -41 20 l-23 22 7
-25z"/>
<path d="M2226 1705 c-4 -10 1 -15 14 -15 13 0 18 5 14 15 -4 8 -10 15 -14 15
-4 0 -10 -7 -14 -15z"/>
<path d="M70 1688 c0 -30 13 -58 26 -58 17 0 17 0 -2 38 -16 34 -24 40 -24 20z"/>
<path d="M2378 1645 c-6 -14 -17 -25 -25 -25 -7 0 -13 -8 -13 -17 0 -12 3 -14
8 -7 4 7 18 14 31 15 29 5 48 44 25 53 -9 4 -19 -4 -26 -19z"/>
<path d="M2922 1635 c10 -22 9 -28 -2 -35 -9 -6 -20 -4 -30 4 -8 7 -25 19 -38
25 -21 11 -23 11 -14 -6 5 -10 7 -24 5 -30 -3 -8 4 -13 16 -13 12 0 21 -4 21
-10 0 -20 37 -10 59 16 25 29 22 47 -8 64 -20 10 -20 9 -9 -15z"/>
<path d="M2226 1593 c-3 -3 -3 -10 0 -14 7 -12 34 -11 34 0 0 11 -26 22 -34
14z"/>
<path d="M2292 1589 c9 -25 -26 -74 -50 -71 -15 2 -22 -2 -22 -12 0 -9 5 -16
10 -16 6 0 10 4 10 9 0 4 10 8 21 7 12 0 27 8 33 19 6 11 17 24 24 28 18 12
15 25 -10 38 -17 9 -20 9 -16 -2z"/>
<path d="M252 1574 c-6 -10 -14 -15 -18 -11 -14 13 -44 -26 -44 -57 0 -17 -7
-42 -16 -54 -9 -14 -12 -27 -7 -37 7 -12 14 -4 33 32 25 51 27 55 29 78 0 8
10 15 22 15 11 0 18 4 15 9 -4 5 -2 11 4 13 5 2 6 9 1 17 -7 11 -11 10 -19 -5z"/>
<path d="M2801 1541 c-10 -6 -10 -10 -1 -16 13 -8 24 -1 19 14 -3 6 -10 7 -18
2z"/>
<path d="M828 1516 c-4 -19 -1 -24 14 -23 13 1 18 8 16 21 -4 29 -25 31 -30 2z"/>
<path d="M1957 1534 c-3 -3 -4 -29 -2 -58 2 -28 7 -168 10 -311 4 -143 9 -263
12 -268 2 -4 10 -3 17 2 16 13 26 4 26 -22 0 -15 -5 -18 -23 -13 l-23 5 4
-137 c2 -75 5 -142 7 -149 3 -9 12 -10 34 -2 43 15 71 -2 71 -46 0 -43 -23
-49 -69 -18 -19 13 -44 23 -56 23 -12 0 -46 14 -76 30 -30 17 -80 42 -111 56
-32 15 -58 31 -58 35 0 5 -6 9 -12 9 -8 0 -14 14 -15 33 -1 17 -5 53 -9 79 -5
38 -1 56 20 98 30 60 30 60 12 60 -8 0 -17 6 -19 13 -3 6 -6 -4 -6 -24 -1 -20
-7 -54 -14 -75 -10 -28 -13 -90 -10 -224 3 -219 -9 -389 -41 -563 -13 -67 -13
-67 10 -67 21 0 24 6 30 60 4 33 10 63 15 66 5 2 4 16 -1 29 -7 17 -6 25 1 25
7 0 9 10 5 26 -4 14 -3 23 1 21 5 -3 9 2 10 11 0 9 4 70 7 134 6 103 5 120
-11 145 -10 15 -12 24 -5 20 6 -5 12 -4 12 2 0 6 -4 11 -10 11 -16 0 -11 38 6
48 12 7 15 18 12 36 l-5 27 26 -23 c14 -13 28 -25 31 -27 3 -2 -6 0 -20 3 -24
7 -25 7 -5 -9 11 -9 19 -23 17 -31 -2 -11 5 -13 37 -8 33 5 45 2 75 -21 23
-17 54 -29 91 -34 31 -4 61 -13 67 -19 6 -6 17 -37 24 -69 7 -32 24 -94 38
-138 13 -44 26 -96 29 -115 8 -51 15 -79 23 -91 6 -11 8 -20 13 -66 2 -21 31
-15 31 7 0 35 -70 311 -90 358 -19 42 -19 48 -5 58 18 13 19 85 5 244 -6 58
-10 156 -10 219 -1 75 -5 120 -13 130 -10 12 -9 13 2 6 11 -6 13 3 8 55 -4 35
-11 66 -16 70 -6 3 -8 20 -6 38 4 29 2 32 -18 27 -12 -3 -30 2 -40 9 -16 13
-18 26 -15 89 2 42 10 82 17 90 10 13 9 21 -10 46 -18 25 -20 33 -10 45 18 21
-3 49 -22 30z m79 -349 c4 -8 1 -21 -5 -29 -6 -7 -9 -15 -6 -18 3 -2 7 -23 10
-46 4 -32 2 -42 -9 -42 -18 0 -40 26 -28 34 6 3 5 21 -1 44 -6 22 -7 46 -4 55
8 21 36 22 43 2z m3 -269 c-4 -5 -15 -6 -23 -3 -20 8 -21 47 -1 47 8 0 16 6
16 13 1 6 5 -1 8 -18 4 -16 4 -34 0 -39z m6 -233 c-2 -7 -1 -13 4 -13 4 0 8
-13 8 -30 0 -23 -5 -30 -20 -30 -15 0 -18 5 -15 25 3 14 1 28 -3 31 -14 8 -11
40 5 53 12 10 12 16 0 39 -17 33 -18 69 -1 75 8 3 14 -17 20 -67 4 -39 5 -77
2 -83z"/>
<path d="M2376 1531 c-3 -5 1 -12 10 -15 25 -10 34 -7 34 9 0 16 -35 21 -44 6z"/>
<path d="M2830 1525 c0 -14 25 -27 34 -18 11 11 6 21 -14 26 -12 3 -20 0 -20
-8z"/>
<path d="M2925 1498 c9 -39 11 -42 24 -33 15 8 14 38 -1 53 -21 21 -30 13 -23
-20z"/>
<path d="M1550 1469 c13 -8 12 -12 -8 -26 -21 -15 -21 -16 -5 -30 16 -13 15
-14 -14 -10 -18 2 -34 1 -36 -2 -2 -3 -2 1 1 9 8 25 13 66 6 53 -3 -7 -14 -13
-25 -13 -10 0 -19 -5 -19 -11 0 -5 4 -8 9 -4 5 3 13 1 16 -5 4 -6 1 -9 -6 -8
-6 2 -14 -3 -17 -11 -3 -8 0 -11 7 -7 7 5 8 1 4 -10 -4 -11 -8 -13 -11 -6 -2
7 -10 12 -18 12 -9 0 -12 5 -9 10 7 11 -2 12 -29 1 -26 -10 -33 -52 -8 -48 9
1 24 7 32 12 9 5 8 0 -4 -13 -17 -19 -17 -22 -3 -22 10 0 17 4 17 10 0 16 63
39 77 27 7 -5 11 -13 8 -17 -3 -4 2 -10 10 -14 11 -4 15 2 15 19 l0 25 36 -21
c20 -11 43 -27 51 -35 13 -12 13 -14 0 -14 -8 0 -17 -10 -19 -23 -4 -19 0 -23
20 -25 14 -1 22 1 19 5 -4 3 0 16 8 29 12 19 12 24 0 34 -8 7 -15 9 -15 5 0
-5 -9 0 -20 10 -10 9 -18 21 -17 25 1 4 -9 16 -22 27 -13 11 -21 26 -19 34 4
11 8 9 14 -6 5 -11 20 -21 34 -23 23 -2 23 -1 -13 33 -20 19 -43 35 -50 35 -8
0 -7 -4 3 -11z"/>
<path d="M1756 1458 c-14 -19 -14 -23 -1 -30 9 -5 14 -22 13 -44 -1 -19 4 -40
10 -46 13 -13 13 -14 17 62 3 83 -9 101 -39 58z"/>
<path d="M2635 1460 l-40 -7 48 -2 c26 0 47 4 47 9 0 6 -3 9 -7 9 -5 -1 -26
-5 -48 -9z"/>
<path d="M2450 1441 c0 -12 5 -21 10 -21 6 0 10 6 10 14 0 8 -4 18 -10 21 -5
3 -10 -3 -10 -14z"/>
<path d="M1666 1441 c-3 -5 1 -11 9 -15 18 -6 45 2 45 15 0 12 -47 12 -54 0z"/>
<path d="M2527 1443 c-6 -10 50 -9 60 0 3 4 -8 7 -25 7 -17 0 -33 -3 -35 -7z"/>
<path d="M2814 1428 c-4 -13 -7 -28 -6 -35 4 -20 -29 -30 -107 -32 -41 -1 -79
-5 -84 -8 -5 -3 -36 -5 -68 -4 -34 1 -59 -3 -59 -9 0 -6 -29 -10 -69 -10 -37
0 -81 -4 -97 -9 -75 -24 -93 -22 -109 9 -8 16 -15 38 -15 50 0 11 -5 20 -10
20 -6 0 -8 -11 -4 -27 9 -34 9 -42 1 -68 -4 -11 -2 -27 3 -35 9 -13 11 -13 19
0 6 8 24 14 48 13 21 -1 48 5 60 13 19 12 27 12 44 2 17 -10 23 -10 26 0 6 17
32 15 40 -3 5 -13 8 -13 20 5 11 15 25 20 61 20 26 1 94 7 152 14 63 8 110 10
116 4 8 -5 18 -2 30 9 10 10 20 18 23 19 27 4 61 18 61 25 0 5 -5 9 -10 9 -6
0 -22 11 -35 26 l-23 25 -8 -23z"/>
<path d="M1661 1381 c22 -46 45 -59 54 -30 4 11 4 23 1 26 -3 4 -6 1 -6 -5 0
-25 -31 -11 -41 18 -6 17 -15 30 -19 30 -5 0 0 -17 11 -39z"/>
<path d="M2238 1409 c-6 -4 -8 -15 -4 -25 6 -16 7 -16 20 1 11 15 20 16 70 8
57 -10 85 -2 43 13 -28 9 -115 11 -129 3z"/>
<path d="M0 1381 c0 -27 3 -31 27 -31 32 0 113 -37 120 -56 2 -7 -1 -23 -9
-36 -15 -27 -18 -90 -3 -85 6 2 10 11 10 20 0 26 15 33 21 10 3 -12 12 -24 20
-27 12 -4 13 5 8 52 -11 105 -46 145 -138 157 -15 3 -34 10 -42 16 -11 9 -14
6 -14 -20z"/>
<path d="M2928 1384 c18 -9 35 -14 39 -10 9 9 2 13 -37 20 l-35 7 33 -17z"/>
<path d="M1318 1373 c-11 -12 -13 -25 -8 -38 8 -19 9 -19 9 2 1 13 6 21 14 19
6 -1 8 -1 4 2 -4 2 -3 10 4 18 17 20 -5 17 -23 -3z"/>
<path d="M2033 1359 c-2 -17 1 -18 12 -9 8 7 12 16 9 21 -9 16 -20 10 -21 -12z"/>
<path d="M1570 1330 c0 -13 5 -18 15 -14 8 4 15 10 15 14 0 4 -7 10 -15 14
-10 4 -15 -1 -15 -14z"/>
<path d="M1733 1337 c-13 -21 -12 -66 3 -78 8 -6 14 -18 14 -25 0 -8 5 -14 12
-14 9 0 9 -3 1 -11 -7 -7 -9 -24 -6 -39 3 -15 -1 -38 -8 -51 -7 -13 -12 -35
-10 -48 3 -23 3 -23 -23 -5 -24 18 -30 32 -27 64 2 13 0 13 -8 1 -8 -12 -16
-13 -44 -4 -26 8 -40 7 -60 -4 -15 -7 -27 -10 -27 -4 0 5 -10 11 -22 15 -18 5
-20 8 -9 15 17 11 5 32 -15 24 -13 -5 -13 -8 1 -29 8 -13 15 -26 15 -29 0 -9
-44 -4 -75 9 -25 11 -40 10 -89 -1 -46 -10 -62 -11 -70 -2 -8 9 -8 10 0 6 7
-4 14 0 18 8 3 8 1 15 -3 15 -5 0 -17 3 -25 6 -12 5 -15 2 -10 -10 4 -9 1 -16
-6 -16 -9 0 -9 -4 1 -17 8 -9 -3 -4 -23 11 -40 30 -47 39 -24 30 11 -4 13 0 9
16 -5 20 -4 21 16 11 17 -10 21 -9 21 4 0 10 -5 13 -12 9 -8 -5 -7 0 2 11 9
11 10 16 3 11 -7 -4 -13 -3 -13 2 0 13 20 28 45 36 12 3 9 4 -7 2 -17 -2 -28
2 -28 9 0 7 -10 12 -22 11 -17 -1 -24 -8 -25 -26 -1 -14 0 -19 3 -12 10 21 26
13 22 -10 -2 -13 -9 -22 -16 -21 -17 4 -26 -41 -12 -66 6 -12 8 -25 5 -30 -3
-5 3 -12 12 -14 17 -4 17 -5 0 -6 -16 -1 -16 -3 -2 -25 9 -13 15 -28 13 -32
-1 -5 2 -24 6 -41 9 -40 0 -59 -20 -42 -11 9 -14 8 -15 -2 -3 -30 3 -55 17
-70 8 -8 14 -25 14 -37 0 -15 5 -20 15 -16 19 8 10 43 -14 60 -13 10 -13 14
-2 28 7 9 17 16 20 16 19 0 44 -30 47 -55 1 -16 11 -35 21 -43 15 -11 16 -14
3 -22 -25 -16 -110 -9 -110 8 0 9 -3 13 -6 10 -10 -11 -9 -188 1 -191 8 -3
-110 -52 -240 -98 -35 -13 -41 -20 -53 -64 -8 -28 -25 -77 -37 -110 -13 -33
-33 -98 -46 -145 -12 -47 -28 -104 -36 -128 -16 -53 -17 -95 -1 -90 6 2 13 15
15 28 2 13 7 28 12 34 5 6 11 27 14 47 2 20 8 42 11 48 4 6 12 39 17 73 6 35
19 78 30 96 10 18 19 40 19 48 0 8 5 12 10 9 6 -4 10 9 10 32 0 21 3 47 6 59
7 25 53 54 88 54 15 0 55 13 90 29 49 22 67 26 77 17 9 -8 10 -8 4 2 -4 8 1
25 14 42 12 17 18 36 15 45 -5 11 0 18 15 22 17 4 21 13 21 45 0 37 2 39 28
36 15 -2 26 -7 25 -13 -7 -33 -31 -82 -46 -93 -13 -10 -15 -18 -7 -31 6 -13 4
-51 -9 -122 -11 -57 -19 -111 -20 -119 -4 -136 8 -244 45 -377 2 -7 13 -13 24
-13 12 0 19 4 15 9 -11 19 -27 107 -27 156 0 42 -1 45 -7 20 -7 -29 -8 -28
-16 19 -12 78 7 332 25 321 4 -2 7 14 8 36 1 23 9 69 18 102 9 34 18 71 21 82
7 31 3 88 -7 101 -6 6 -13 31 -16 55 -5 40 -9 45 -31 44 -28 0 -28 0 -39 92
-6 47 -5 52 12 51 16 -2 19 -9 16 -50 -3 -39 -1 -48 12 -48 12 0 16 10 16 43
l1 42 20 -38 c11 -21 27 -41 35 -44 13 -5 13 -7 2 -14 -9 -6 -4 -9 15 -9 32 0
34 -6 6 -28 -24 -20 -17 -52 11 -52 11 0 22 -5 25 -10 4 -7 12 -7 18 -2 7 4
27 9 45 11 27 2 35 -2 39 -18 3 -14 13 -21 29 -21 30 0 31 -18 2 -24 -58 -12
-98 -14 -93 -6 3 6 -1 7 -10 3 -28 -10 5 -23 62 -23 l52 0 26 53 c24 48 55 72
55 42 0 -28 -64 -126 -90 -140 -50 -26 -110 -19 -153 16 -40 33 -46 26 -21
-22 21 -42 105 -149 116 -149 5 0 6 -4 3 -10 -9 -14 1 -13 33 4 34 18 128 113
120 122 -4 3 -19 -7 -35 -23 -47 -49 -85 -73 -111 -73 -20 0 -22 3 -13 14 9
11 4 19 -24 42 -19 15 -42 38 -50 50 -14 22 -14 22 15 7 33 -16 123 -10 151
10 19 15 69 117 69 142 0 11 -12 31 -27 47 -31 33 -24 48 12 24 15 -10 25 -12
25 -5 0 6 -9 13 -20 16 -11 3 -20 9 -20 14 0 5 -8 9 -18 9 -28 0 -62 29 -62
52 0 12 3 19 6 16 3 -4 18 -3 32 2 15 4 37 3 50 -1 13 -5 22 -4 22 1 0 17 -80
33 -96 19 -18 -15 -32 -3 -16 13 6 6 39 12 72 14 49 1 62 -2 70 -16 5 -9 7
-20 4 -23 -3 -3 2 -19 10 -35 9 -17 13 -39 9 -49 -6 -16 -5 -16 10 -4 20 16
22 42 5 60 -11 10 -9 11 6 5 15 -6 17 -14 12 -43 -3 -23 -2 -31 4 -21 5 8 12
35 15 60 9 67 21 79 28 28 4 -31 2 -47 -10 -60 -12 -13 -13 -18 -3 -18 9 0 11
-12 7 -44 -5 -32 -2 -47 8 -56 25 -21 29 15 18 133 -9 89 -8 115 3 143 14 34
6 51 -18 39 -7 -4 -5 0 5 9 28 22 15 86 -23 114 -22 17 -31 19 -37 9z m49 -77
c-6 -43 -12 -37 -12 13 0 25 4 37 8 29 5 -7 7 -26 4 -42z m-386 -164 c12 -13
10 -15 -13 -19 -16 -2 -4 -5 25 -6 49 -1 71 12 37 22 -11 4 -10 4 2 3 24 -2
29 -41 9 -71 -20 -30 -53 -40 -90 -25 -23 8 -26 13 -17 24 10 11 8 16 -8 21
-15 4 -19 13 -17 28 3 12 5 25 5 30 2 13 52 8 67 -7z m126 -53 c4 -17 15 -36
23 -43 8 -7 15 -19 15 -27 0 -8 4 -12 9 -8 5 3 17 -5 25 -17 20 -28 6 -46 -34
-44 -27 1 -56 16 -31 16 7 0 9 5 5 11 -4 8 0 8 15 0 17 -9 21 -9 21 2 0 25
-24 36 -68 33 -54 -4 -62 -12 -34 -32 39 -27 31 -30 -66 -25 -17 1 -1 32 45
85 18 22 33 47 33 56 0 42 31 36 42 -7z m34 -168 c-11 -8 -22 -12 -25 -9 -6 6
19 24 34 24 6 -1 1 -7 -9 -15z m-312 -119 c-3 -9 -10 -16 -15 -16 -6 0 -5 9 1
21 13 24 24 20 14 -5z"/>
<path d="M1395 1050 l-30 -8 27 -1 c15 0 30 4 33 9 3 6 5 9 3 9 -2 -1 -16 -5
-33 -9z"/>
<path d="M1335 1330 c-8 -13 4 -78 20 -110 11 -21 11 -29 -1 -44 -8 -11 -17
-16 -21 -13 -3 4 -3 7 0 7 4 0 -2 9 -14 21 -11 11 -28 18 -37 16 -15 -4 -15
-5 1 -6 9 0 17 -7 17 -14 0 -7 9 -20 19 -29 18 -15 21 -14 45 11 17 18 26 38
26 60 0 20 4 30 11 26 6 -4 8 -13 5 -21 -3 -7 -2 -15 2 -18 5 -3 13 8 19 25 6
16 7 29 2 29 -5 0 -9 -5 -9 -12 0 -9 -3 -9 -12 0 -9 9 -16 8 -29 -4 -15 -14
-17 -12 -17 13 0 15 5 32 12 36 6 5 2 7 -12 4 -19 -4 -22 -2 -17 14 7 20 0 26
-10 9z"/>
<path d="M1441 1327 c-6 -8 -8 -17 -4 -21 4 -4 0 -4 -9 -1 -9 4 -18 0 -22 -11
-5 -12 -2 -15 10 -10 8 3 20 6 25 6 5 0 9 9 9 20 0 23 15 27 24 5 6 -17 36
-21 36 -5 0 6 -5 10 -11 10 -5 0 -7 5 -4 10 9 15 -41 12 -54 -3z"/>
<path d="M1207 1318 c-9 -5 -9 -10 1 -20 9 -9 12 -9 12 0 0 16 38 15 42 -1 2
-10 8 -10 26 -1 21 10 21 12 5 25 -11 9 -14 10 -9 2 4 -7 3 -13 -3 -13 -5 0
-12 4 -16 9 -6 11 -40 10 -58 -1z"/>
<path d="M2000 1321 c0 -6 5 -13 11 -16 6 -4 8 -13 5 -21 -3 -8 0 -11 10 -7 8
3 13 8 10 11 -3 2 -1 13 5 23 8 16 6 19 -16 19 -14 0 -25 -4 -25 -9z"/>
<path d="M2925 1319 c-4 -6 -4 -13 -1 -16 8 -8 36 5 36 17 0 13 -27 13 -35 -1z"/>
<path d="M415 1308 c18 -30 38 -46 51 -41 18 7 9 20 -28 39 -22 12 -28 12 -23
2z"/>
<path d="M2830 1300 c-8 -4 -27 -13 -42 -19 -20 -7 -28 -18 -28 -35 0 -14 -4
-28 -10 -31 -5 -3 -10 -15 -10 -27 0 -17 2 -18 15 -8 8 7 15 21 15 31 0 19 46
49 75 49 8 0 15 9 15 19 0 24 -10 31 -30 21z"/>
<path d="M50 1285 c0 -8 5 -15 10 -15 6 0 10 7 10 15 0 8 -4 15 -10 15 -5 0
-10 -7 -10 -15z"/>
<path d="M1506 1291 c-4 -5 -2 -12 4 -16 17 -11 11 -31 -10 -32 -11 -1 -20 4
-20 13 0 8 -7 14 -15 14 -10 0 -14 -12 -13 -45 0 -40 2 -43 19 -35 12 7 20 7
24 0 4 -6 11 -8 16 -4 6 3 3 12 -8 20 -13 11 -10 11 15 -1 21 -10 32 -21 28
-30 -6 -17 10 -30 19 -15 4 6 -1 23 -11 38 -10 15 -19 42 -19 61 -1 34 -17 52
-29 32z"/>
<path d="M1554 1269 c2 -18 16 -43 36 -62 18 -18 30 -27 26 -20 -9 16 21 29
66 28 40 0 43 2 29 24 -7 11 -13 12 -23 4 -41 -32 -89 -19 -107 30 -14 37 -32
34 -27 -4z"/>
<path d="M1670 1285 c7 -8 16 -12 21 -9 13 8 1 24 -18 24 -13 0 -13 -3 -3 -15z"/>
<path d="M339 1274 c-11 -14 -10 -15 11 -12 13 1 25 9 28 16 5 17 -23 15 -39
-4z"/>
<path d="M1110 1275 c7 -8 16 -12 21 -9 13 8 1 24 -18 24 -13 0 -13 -3 -3 -15z"/>
<path d="M503 1238 c7 -49 -9 -62 -69 -55 -41 4 -43 3 -25 -10 12 -8 21 -21
21 -30 0 -12 -7 -14 -31 -9 -22 4 -44 0 -73 -15 -22 -12 -47 -25 -55 -28 -8
-4 -19 -27 -25 -51 -7 -25 -13 -48 -14 -52 -1 -5 -2 -15 -2 -23 0 -8 -7 -15
-15 -15 -18 0 -38 37 -31 56 3 8 -1 14 -9 14 -17 0 -20 -35 -5 -45 6 -4 8 -10
5 -14 -2 -5 2 -17 10 -27 22 -29 19 -62 -7 -66 -20 -3 -21 -4 -5 -20 21 -21
22 -47 2 -54 -10 -4 -12 -11 -6 -22 5 -10 11 -41 14 -70 4 -47 2 -54 -16 -61
-11 -4 -16 -10 -11 -13 20 -11 105 -30 110 -25 4 3 -5 9 -19 12 -31 8 -39 45
-28 132 8 67 17 86 30 64 5 -7 14 -10 20 -7 13 8 -10 36 -28 36 -16 0 1 106
34 211 9 26 95 59 148 55 54 -3 53 -2 61 -42 8 -38 -12 -59 -49 -50 -24 6 -25
5 -24 -41 1 -40 2 -43 8 -18 8 41 47 48 57 11 7 -31 -11 -57 -34 -49 -9 3 -3
-6 13 -20 l30 -25 7 26 c3 15 8 73 11 130 4 96 3 102 -15 102 -11 0 -18 5 -15
13 2 6 12 12 23 12 16 0 20 8 22 49 2 29 -2 53 -9 60 -9 8 -10 2 -6 -26z"/>
<path d="M997 1215 c-9 -19 -28 -40 -42 -45 -14 -5 -28 -16 -31 -24 -7 -19
-56 -34 -110 -35 -34 -1 -43 3 -47 19 -3 11 -13 20 -22 20 -12 0 -15 -5 -9
-22 4 -13 8 -32 9 -43 2 -22 -2 -22 163 -9 l93 7 -3 -44 c-2 -36 -8 -46 -30
-57 -32 -15 -37 -32 -9 -32 22 0 31 -28 26 -87 -5 -58 -14 -83 -31 -83 -19 0
-18 -16 1 -24 8 -3 15 -17 15 -32 0 -18 -4 -25 -14 -21 -8 3 -27 2 -43 -3 -15
-5 -20 -9 -10 -9 25 -1 21 -30 -5 -35 -107 -22 -178 -12 -178 26 0 10 -5 18
-11 18 -7 0 -9 -9 -5 -22 3 -13 6 -35 6 -49 l0 -26 58 14 c31 7 83 16 115 19
38 4 57 10 57 19 0 10 20 25 35 25 2 0 3 -25 3 -55 -1 -54 6 -75 18 -62 3 3 7
52 9 109 2 57 6 181 10 276 4 94 4 172 0 172 -3 0 -15 -5 -26 -11 -24 -12 -59
-3 -59 17 0 8 9 14 20 14 54 0 95 55 72 96 -6 11 -12 6 -25 -21z"/>
<path d="M2101 1243 c0 -6 -4 -20 -7 -30 -5 -14 -4 -15 5 -7 7 7 11 20 8 30
-3 11 -5 14 -6 7z"/>
<path d="M2199 1250 c0 -3 -3 -18 -5 -35 -5 -28 -4 -29 12 -14 12 13 14 21 5
35 -6 11 -11 17 -12 14z"/>
<path d="M57 1233 c-4 -3 -7 -16 -6 -27 0 -19 1 -19 10 3 10 24 8 36 -4 24z"/>
<path d="M1310 1233 c0 -5 7 -16 14 -26 12 -16 14 -16 20 -2 3 9 2 13 -4 10
-6 -3 -10 1 -10 9 0 9 -4 16 -10 16 -5 0 -10 -3 -10 -7z"/>
<path d="M2850 1195 c0 -8 5 -15 10 -15 6 0 10 7 10 15 0 8 -4 15 -10 15 -5 0
-10 -7 -10 -15z"/>
<path d="M1645 1192 c-9 -6 -11 -16 -6 -38 0 -3 8 2 17 11 17 17 7 40 -11 27z"/>
<path d="M174 1126 c1 -25 6 -50 12 -56 9 -9 10 0 7 37 -7 63 -19 76 -19 19z"/>
<path d="M2774 1143 c-3 -10 -10 -29 -15 -42 -12 -30 -5 -38 16 -17 21 21 52
20 64 -1 5 -10 12 -15 15 -12 9 9 -6 49 -18 48 -27 -3 -36 2 -36 21 0 25 -19
26 -26 3z"/>
<path d="M2190 1133 c0 -32 12 -63 21 -57 5 3 18 -5 28 -17 12 -15 20 -19 25
-11 4 7 3 12 -2 12 -6 0 -13 11 -16 25 -4 16 -11 22 -21 19 -11 -5 -15 1 -15
20 0 14 -4 26 -10 26 -5 0 -10 -8 -10 -17z"/>
<path d="M109 1095 c-1 -14 -2 -29 -3 -35 -1 -5 3 -9 9 -7 5 1 8 10 7 20 -2 9
4 20 12 23 18 7 11 24 -10 24 -8 0 -15 -11 -15 -25z"/>
<path d="M2910 1090 c-20 -12 -5 -24 16 -12 9 5 12 12 7 15 -5 3 -15 2 -23 -3z"/>
<path d="M1120 1076 c0 -8 4 -17 9 -21 6 -3 9 4 8 15 -1 23 -17 28 -17 6z"/>
<path d="M41 1062 c-13 -25 -14 -42 -2 -42 10 0 25 50 17 57 -2 3 -9 -4 -15
-15z"/>
<path d="M552 1045 c3 -28 11 -24 13 5 1 11 -2 20 -7 20 -4 0 -7 -11 -6 -25z"/>
<path d="M628 1045 c-8 -8 2 -45 13 -45 10 0 10 8 0 33 -3 10 -9 15 -13 12z"/>
<path d="M2847 1043 c-10 -9 -9 -23 2 -23 5 0 11 7 15 15 5 15 -5 20 -17 8z"/>
<path d="M2194 1024 c3 -9 6 -25 7 -37 1 -20 2 -20 9 3 13 39 11 50 -6 50 -11
0 -14 -5 -10 -16z"/>
<path d="M2772 1017 c-19 -25 -22 -48 -7 -54 9 -3 13 -13 11 -22 -7 -20 8 -46
22 -38 5 4 7 18 4 32 -2 15 0 25 7 25 18 0 12 44 -8 57 -15 9 -21 9 -29 0z"/>
<path d="M693 1000 c4 -14 7 -41 7 -60 0 -23 3 -30 9 -21 8 13 -4 90 -16 101
-3 3 -3 -6 0 -20z"/>
<path d="M93 985 c-9 -24 1 -27 15 -5 8 13 8 20 2 20 -6 0 -13 -7 -17 -15z"/>
<path d="M2610 952 c0 -23 5 -42 10 -42 7 0 8 14 4 38 -9 51 -14 53 -14 4z"/>
<path d="M31 943 c1 -16 4 -39 8 -53 4 -14 4 -37 0 -52 -6 -21 -4 -28 7 -28
15 0 17 -6 14 -63 -1 -22 6 -50 18 -70 15 -23 18 -38 11 -55 -5 -13 -13 -20
-19 -17 -15 9 -50 -4 -47 -18 1 -7 -4 -11 -11 -10 -6 2 -12 -4 -12 -12 0 -17
16 -20 25 -6 3 5 18 12 33 16 26 6 84 65 63 65 -6 0 -8 7 -5 15 3 8 -3 26 -14
40 -15 19 -22 48 -27 115 -6 81 -5 93 11 112 19 21 19 21 -5 15 -17 -4 -24 -1
-28 14 -8 29 -23 23 -22 -8z"/>
<path d="M317 963 c-12 -11 -8 -23 8 -23 8 0 15 7 15 15 0 16 -12 20 -23 8z"/>
<path d="M2448 935 c2 -19 7 -33 11 -30 9 5 1 65 -8 65 -4 0 -5 -16 -3 -35z"/>
<path d="M629 925 c-5 -102 -7 -154 -18 -353 -9 -176 -8 -218 3 -240 7 -15 11
-33 9 -39 -7 -19 14 -16 21 3 4 9 -1 28 -10 42 -11 17 -14 36 -10 66 3 22 8
133 11 246 3 113 7 223 10 245 3 22 1 47 -5 55 -7 11 -10 5 -11 -25z"/>
<path d="M1086 931 c-3 -5 1 -14 9 -21 12 -10 15 -10 15 3 0 19 -16 31 -24 18z"/>
<path d="M2823 897 c13 -34 -10 -42 -120 -42 -59 0 -118 -4 -131 -8 -13 -5
-37 -4 -58 3 -22 7 -39 8 -47 3 -7 -6 -58 -5 -132 2 -66 7 -124 10 -128 8 -5
-3 -6 -12 -3 -20 3 -7 6 -51 7 -96 l1 -82 147 1 c177 2 174 2 134 19 -22 9
-33 21 -33 34 0 18 -3 19 -26 11 -14 -6 -38 -10 -54 -10 -16 0 -30 -4 -32 -9
-1 -5 -18 -12 -36 -16 -26 -5 -33 -3 -39 12 -4 10 -15 24 -25 31 -21 15 -24
40 -4 48 7 3 11 14 9 28 -5 22 -4 22 104 19 59 -3 118 -4 130 -4 13 1 22 -4
20 -10 -1 -6 4 -14 11 -16 6 -3 12 3 12 12 0 14 6 16 29 12 15 -3 32 -2 38 4
5 5 28 4 61 -4 29 -8 55 -10 60 -5 5 5 20 0 34 -12 31 -23 38 -25 38 -7 0 10
17 14 63 14 65 1 117 15 117 33 0 7 -18 8 -52 4 -86 -12 -83 -12 -80 24 2 19
-1 32 -8 32 -7 0 -10 -6 -7 -13z m-368 -207 c3 -5 -3 -10 -14 -10 -12 0 -21 5
-21 10 0 6 6 10 14 10 8 0 18 -4 21 -10z"/>
<path d="M370 886 c0 -9 7 -16 16 -16 17 0 14 22 -4 28 -7 2 -12 -3 -12 -12z"/>
<path d="M742 858 c0 -13 -2 -39 -6 -59 -9 -42 7 -61 23 -30 12 21 3 111 -10
111 -5 0 -8 -10 -7 -22z"/>
<path d="M1765 850 c-3 -5 -15 -10 -26 -10 -11 0 -17 -4 -14 -10 3 -5 14 -10
24 -10 14 0 20 -11 25 -46 3 -25 2 -54 -4 -63 -9 -19 12 -61 31 -61 5 0 9 46
9 105 0 97 -1 105 -19 105 -11 0 -23 -4 -26 -10z"/>
<path d="M383 838 c-6 -7 -13 -21 -16 -30 -4 -10 -13 -18 -22 -18 -27 0 -16
-25 12 -27 45 -2 63 13 61 52 -1 36 -17 46 -35 23z"/>
<path d="M913 826 c-10 -11 -9 -15 1 -19 16 -7 26 1 26 20 0 17 -12 16 -27 -1z"/>
<path d="M467 823 c-9 -15 -11 -58 -4 -70 12 -19 -46 -43 -103 -43 -32 0 -49
-4 -45 -10 4 -6 -6 -10 -24 -10 -16 0 -33 -5 -36 -10 -8 -13 151 -2 178 12 25
13 39 1 33 -30 -11 -67 -33 -91 -83 -92 -30 0 -38 8 -34 33 0 4 -15 7 -35 7
-27 0 -35 -4 -31 -14 4 -9 -3 -17 -16 -21 -20 -6 -18 -8 13 -15 18 -5 52 -7
74 -5 22 2 47 -1 55 -8 11 -9 15 -9 18 1 3 6 16 12 29 12 21 0 24 5 24 38 0
20 3 81 7 135 4 67 3 97 -5 97 -6 0 -13 -3 -15 -7z"/>
<path d="M807 824 c-4 -4 -7 -17 -7 -28 0 -19 1 -19 17 -3 12 11 14 20 7 27
-6 6 -13 7 -17 4z"/>
<path d="M530 746 c0 -64 1 -68 15 -50 14 18 14 18 15 -4 0 -13 4 -20 10 -17
7 4 7 12 0 25 -5 10 -10 29 -10 42 -1 13 -7 34 -15 48 -13 23 -14 21 -15 -44z"/>
<path d="M2466 800 c-11 -3 -15 -9 -10 -13 10 -6 42 9 34 16 -3 3 -14 1 -24
-3z"/>
<path d="M2556 787 c-7 -27 1 -35 18 -16 12 12 12 16 1 26 -10 9 -14 7 -19
-10z"/>
<path d="M277 743 c-29 -8 -10 -20 24 -15 22 3 27 7 18 13 -8 5 -16 8 -19 8
-3 -1 -13 -3 -23 -6z"/>
<path d="M745 730 c-27 -7 -28 -8 -5 -8 14 0 34 3 45 8 25 11 2 11 -40 0z"/>
<path d="M2795 731 c-3 -6 -24 -11 -46 -11 -21 0 -39 -4 -39 -10 0 -5 24 -10
54 -10 42 0 54 3 52 15 -3 21 -13 28 -21 16z"/>
<path d="M0 683 c0 -22 2 -25 10 -13 13 20 13 40 0 40 -5 0 -10 -12 -10 -27z"/>
<path d="M2650 687 c0 -13 -6 -29 -12 -36 -11 -10 -7 -10 17 0 17 7 31 14 33
15 7 4 -19 44 -28 44 -6 0 -10 -10 -10 -23z"/>
<path d="M1389 672 c5 -10 18 -25 27 -33 11 -9 9 -2 -6 19 -26 35 -36 42 -21
14z"/>
<path d="M2949 670 c-18 -12 -5 -23 26 -25 30 -1 32 6 7 22 -11 6 -24 8 -33 3z"/>
<path d="M539 632 c-3 -20 -2 -29 4 -23 5 5 7 19 5 32 -3 20 -5 19 -9 -9z"/>
<path d="M2787 653 c-4 -3 1 -12 10 -18 12 -9 16 -24 15 -49 l-3 -36 45 0 c25
0 47 4 50 9 3 5 26 12 51 15 25 4 45 11 45 17 0 14 -72 11 -103 -6 -33 -17
-57 -10 -57 16 0 11 -7 22 -15 25 -8 4 -15 12 -15 20 0 15 -12 19 -23 7z"/>
<path d="M2527 630 c-3 -12 -14 -20 -26 -20 -23 0 -27 -16 -11 -40 9 -13 13
-12 28 5 9 12 25 24 35 28 14 5 16 11 7 27 -14 25 -26 26 -33 0z"/>
<path d="M2593 633 c4 -3 2 -12 -4 -20 -9 -10 -7 -13 10 -13 15 0 20 -4 15
-12 -5 -10 -4 -10 5 -2 15 14 -1 54 -21 54 -6 0 -8 -3 -5 -7z"/>
<path d="M2262 604 c3 -16 13 -19 61 -21 32 -2 66 -7 76 -12 21 -12 31 -5 31
21 0 15 -8 18 -47 18 -27 0 -65 3 -87 7 -34 5 -38 4 -34 -13z"/>
<path d="M707 583 c-4 -3 -7 -30 -7 -58 0 -38 4 -52 14 -52 11 0 12 4 3 18 -9
14 -9 26 -1 48 11 28 5 58 -9 44z"/>
<path d="M2704 575 c-18 -13 -16 -14 19 -15 41 0 46 5 18 19 -13 7 -24 6 -37
-4z"/>
<path d="M1368 530 c-29 -26 -50 -51 -46 -55 4 -5 13 -3 20 2 7 6 23 14 35 17
31 10 44 -34 26 -88 -8 -22 -16 -76 -19 -120 -3 -45 -10 -101 -16 -126 -5 -25
-13 -71 -17 -102 -6 -47 -5 -58 7 -58 9 0 13 7 9 20 -3 11 0 20 6 20 6 0 7 3
4 6 -3 4 -2 16 4 27 8 14 8 18 0 13 -6 -4 -11 -2 -11 3 0 6 5 11 12 11 6 0 8
3 5 6 -3 4 0 15 7 26 8 11 12 28 9 39 -3 12 3 26 18 40 23 19 23 19 2 10 -34
-17 -40 -12 -13 11 25 21 25 21 2 15 -18 -4 -21 -2 -13 7 6 7 8 23 6 36 -3 13
1 28 8 32 9 6 9 10 -3 17 -12 9 -12 12 2 28 9 10 18 29 20 43 4 28 16 50 26
50 24 -1 36 -22 34 -60 -2 -27 1 -39 8 -35 6 4 10 -4 10 -19 0 -13 5 -26 12
-28 15 -5 30 -150 16 -159 -6 -4 -5 -9 3 -13 8 -3 10 -8 4 -11 -11 -5 -12 -66
-1 -83 3 -6 -12 -8 -38 -5 -28 4 -46 1 -51 -7 -6 -9 2 -11 33 -5 35 6 41 4 47
-14 3 -12 11 -21 16 -21 5 0 9 1 9 3 10 168 11 268 2 297 -6 19 -18 57 -26 83
-8 26 -12 45 -7 43 4 -3 17 10 27 29 21 40 22 41 41 18 13 -17 13 -16 4 2 -5
11 -24 36 -43 57 -28 30 -41 37 -85 42 -52 5 -54 4 -105 -44z m165 9 c8 -12 5
-22 -12 -40 -18 -20 -23 -21 -31 -9 -8 13 -10 12 -10 -2 0 -12 -8 -18 -25 -18
-14 0 -25 5 -25 12 0 6 -7 19 -16 29 -9 10 -14 25 -10 34 8 22 114 17 129 -6z"/>
<path d="M2220 547 c0 -17 5 -27 14 -27 24 0 27 16 6 35 -19 18 -20 17 -20 -8z"/>
<path d="M42 548 c5 -15 28 -23 28 -10 0 5 -7 13 -16 16 -10 4 -14 1 -12 -6z"/>
<path d="M815 550 c-4 -6 5 -10 19 -10 14 0 26 5 26 10 0 6 -9 10 -19 10 -11
0 -23 -4 -26 -10z"/>
<path d="M523 479 l0 -61 18 33 c15 30 15 37 3 61 -8 16 -16 28 -18 28 -1 0
-3 -28 -3 -61z"/>
<path d="M1609 520 c13 -11 28 -20 35 -20 6 0 0 9 -14 20 -33 26 -52 25 -21 0z"/>
<path d="M780 511 c0 -11 -3 -27 -7 -37 -4 -12 -2 -15 8 -12 19 6 31 68 13 68
-8 0 -14 -9 -14 -19z"/>
<path d="M217 496 c-4 -10 0 -12 14 -9 27 7 34 23 11 23 -11 0 -22 -6 -25 -14z"/>
<path d="M293 493 c16 -16 18 -16 34 0 16 16 15 17 -17 17 -32 0 -33 -1 -17
-17z"/>
<path d="M100 481 c0 -4 11 -6 25 -3 14 2 25 6 25 8 0 2 -11 4 -25 4 -14 0
-25 -4 -25 -9z"/>
<path d="M2225 480 c-9 -15 3 -60 15 -60 6 0 10 -13 10 -29 0 -23 8 -34 36
-50 30 -18 39 -19 51 -9 9 7 36 20 62 29 26 9 47 23 49 32 4 19 -20 31 -122
58 -38 10 -74 24 -81 29 -9 8 -15 8 -20 0z m105 -58 c20 -1 60 -16 60 -23 0
-14 -40 -30 -68 -27 -30 3 -59 47 -40 60 7 3 19 3 27 -2 9 -4 18 -8 21 -8z"/>
<path d="M450 416 c0 -8 5 -18 10 -21 6 -3 10 3 10 14 0 12 -4 21 -10 21 -5 0
-10 -6 -10 -14z"/>
<path d="M820 409 c-19 -5 -57 -12 -85 -15 -27 -3 -51 -7 -52 -8 -1 -1 0 -12
4 -24 6 -25 35 -29 52 -8 7 8 37 22 67 32 30 9 57 21 60 25 6 10 1 10 -46 -2z"/>
<path d="M25 370 c-18 -8 -17 -9 8 -9 15 -1 27 4 27 9 0 12 -8 12 -35 0z"/>
<path d="M446 361 c-12 -13 -14 -21 -6 -26 18 -11 40 3 40 25 0 25 -12 26 -34
1z"/>
<path d="M1816 328 c-4 -24 -18 -92 -31 -153 -33 -155 -38 -181 -32 -175 13
12 85 370 75 370 -3 0 -8 -19 -12 -42z"/>
<path d="M530 320 c0 -11 0 -23 -1 -27 0 -4 4 -9 10 -11 6 -2 11 10 11 27 0
17 -4 31 -10 31 -5 0 -10 -9 -10 -20z"/>
<path d="M252 321 c-13 -3 -23 -10 -22 -16 1 -11 36 -8 59 4 19 11 -7 19 -37
12z"/>
<path d="M370 309 c-12 -21 -4 -42 8 -23 4 6 18 18 32 27 l24 17 -26 0 c-17 0
-31 -8 -38 -21z"/>
<path d="M755 285 c-22 -8 -47 -15 -55 -15 -12 0 -16 -10 -16 -35 0 -19 1 -35
3 -35 13 0 63 30 84 50 14 14 34 30 45 37 19 12 19 12 -1 12 -11 0 -38 -6 -60
-14z"/>
<path d="M65 261 c-44 -16 -47 -19 -27 -25 29 -9 92 11 92 30 0 17 -2 17 -65
-5z"/>
<path d="M262 258 c-20 -20 -13 -29 15 -22 15 4 33 7 40 7 7 0 14 6 17 12 6
16 -57 18 -72 3z"/>
<path d="M612 253 c-13 -9 -37 -16 -55 -15 -43 2 -67 -6 -67 -22 0 -17 97 0
121 20 8 8 23 14 32 14 9 0 19 5 22 10 10 16 -27 11 -53 -7z"/>
<path d="M2326 213 c-3 -3 -6 -26 -6 -50 0 -39 -5 -49 -46 -88 -48 -47 -33
-52 16 -6 34 32 60 82 60 115 0 25 -12 40 -24 29z"/>
<path d="M574 196 c-17 -13 -18 -15 -2 -21 9 -4 24 -3 33 2 14 8 14 11 2 21
-10 9 -18 8 -33 -2z"/>
<path d="M1990 170 c0 -17 -7 -46 -14 -65 -8 -19 -11 -35 -6 -35 4 0 6 -16 5
-36 -2 -20 0 -33 4 -28 10 10 25 194 16 194 -3 0 -5 -14 -5 -30z"/>
<path d="M380 180 c0 -5 -7 -7 -15 -4 -10 4 -18 -3 -24 -19 -5 -14 -16 -27
-23 -30 -8 -4 -7 -6 5 -6 9 -1 17 -5 17 -10 0 -5 -8 -12 -17 -14 -17 -4 -17
-5 0 -6 11 -1 17 -9 17 -26 0 -14 4 -25 9 -25 5 0 8 23 8 51 -2 55 16 79 60
79 13 0 23 5 23 10 0 6 -13 10 -30 10 -16 0 -30 -4 -30 -10z"/>
<path d="M25 170 c-3 -5 3 -10 14 -10 11 0 23 5 26 10 3 6 -3 10 -14 10 -11 0
-23 -4 -26 -10z"/>
<path d="M103 164 c-3 -8 2 -22 11 -30 8 -8 14 -11 11 -7 -3 3 5 17 17 30 l21
23 -27 0 c-15 0 -29 -7 -33 -16z"/>
<path d="M205 150 c-3 -5 3 -10 14 -10 12 0 21 5 21 10 0 6 -6 10 -14 10 -8 0
-18 -4 -21 -10z"/>
<path d="M452 142 c-30 -10 -53 -20 -53 -24 1 -5 1 -17 1 -28 0 -27 18 -25 22
3 2 17 13 24 47 33 25 6 47 16 49 22 5 15 1 14 -66 -6z"/>
<path d="M570 110 c0 -14 7 -20 23 -21 32 -3 91 2 97 8 11 10 -28 23 -57 18
-17 -3 -34 -1 -38 5 -10 17 -25 11 -25 -10z"/>
<path d="M65 110 c-17 -7 -15 -9 13 -9 17 -1 32 4 32 9 0 12 -17 12 -45 0z"/>
<path d="M252 79 c-39 -23 -56 -24 -48 -3 5 13 2 15 -16 10 -13 -3 -30 -6 -38
-6 -9 -1 -6 -5 8 -10 28 -12 28 -27 0 -34 -13 -3 3 -3 35 -1 47 3 63 9 82 29
30 33 18 41 -23 15z"/>
<path d="M2554 48 c-9 -18 -22 -37 -28 -41 -6 -4 -1 -7 14 -5 19 2 26 11 31
38 10 46 4 49 -17 8z"/>
<path d="M60 50 c0 -13 11 -13 30 0 12 8 11 10 -7 10 -13 0 -23 -4 -23 -10z"/>
<path d="M19 31 l-24 -20 23 6 c23 5 38 20 29 29 -2 2 -15 -4 -28 -15z"/>
</g>
</svg>
